<?xml version="1.0" encoding="iso-8859-1"?>
<!-- Generator: Adobe Illustrator 16.0.0, SVG Export Plug-In . SVG Version: 6.00 Build 0)  -->
<!DOCTYPE svg PUBLIC "-//W3C//DTD SVG 1.1//EN" "http://www.w3.org/Graphics/SVG/1.1/DTD/svg11.dtd">
<svg version="1.1" id="Capa_1" xmlns="http://www.w3.org/2000/svg" xmlns:xlink="http://www.w3.org/1999/xlink" x="0px" y="0px"
	 width="569.729px" height="569.729px" viewBox="0 0 569.729 569.729" style="enable-background:new 0 0 569.729 569.729;"
	 xml:space="preserve">
<g>
	<g>
		<path d="M347.979,126.588c23.954-4.298,42.396-30.958,42.396-63.055C390.375,28.444,368.333,0,341.147,0
			c-27.187,0-49.229,28.444-49.229,63.533c0,32.192,18.552,58.771,42.606,62.95c1.262,0.22,2.003,0.942,1.63,1.697l-0.669,1.367
			l-4.681,8.817c-0.603,1.133-0.048,2.056,1.233,2.056h0.865c1.286,0,1.994,0.99,1.683,2.233c-0.999,3.993-1.286,8.205-0.664,12.742
			c0.842,6.101,4.57,11.709,7.167,17.174c3.629,7.64,4.547,14.664,2.51,22.854c-1.807,7.267-4.227,14.076-5.149,21.559
			c-0.913,7.43,10.72,7.32,11.623-0.02c0.847-6.885,3.462-13.392,5.126-20.091c1.674-6.732,1.592-13.483-0.076-20.196
			c-1.603-6.445-5.207-12.145-8.023-18.106c-2.63-5.58-2.199-10.854-0.449-15.979c0.416-1.214,1.859-2.176,3.146-2.176h0.665
			c1.286,0,1.836-0.918,1.233-2.056l-4.681-8.816c0,0-0.301-0.588-0.674-1.311C345.985,127.516,346.717,126.818,347.979,126.588z"/>
		<circle cx="285.924" cy="250.867" r="39.737"/>
		<path d="M177.557,379.412c-6.364,6.826-5.996,17.523,0.832,23.887c3.256,3.041,7.396,4.541,11.527,4.541
			c4.523,0,9.032-1.801,12.36-5.369l36.997-41.324V409.5l-4.92,139.818c-0.382,10.881,8.133,20.014,19.01,20.4
			c0.234,0.006,0.473,0.01,0.708,0.01c10.567,0,19.316-8.377,19.694-19.023l3.687-104.797h15.391l13.842,106.637
			c1.291,9.941,9.769,17.18,19.526,17.18c0.847,0,1.702-0.059,2.563-0.168c10.801-1.4,18.417-11.289,17.012-22.09l-19.551-148.773
			l-0.517-60.482l43.29-19.742c4.742-2.166,8.262-6.354,9.562-11.408l17.59-68.204c2.386-9.242-3.175-18.666-12.417-21.047
			c-9.199-2.386-18.666,3.174-21.047,12.417l-15.534,60.221l-35.161,16.035h-61.463c-0.923,0-1.807,0.145-2.668,0.35
			c-3.395,0.65-6.622,2.299-9.161,5.02L177.557,379.412z"/>
	</g>
</g>
<g>
</g>
<g>
</g>
<g>
</g>
<g>
</g>
<g>
</g>
<g>
</g>
<g>
</g>
<g>
</g>
<g>
</g>
<g>
</g>
<g>
</g>
<g>
</g>
<g>
</g>
<g>
</g>
<g>
</g>
</svg>
