<?xml version="1.0" encoding="iso-8859-1"?>
<!-- Generator: Adobe Illustrator 19.0.0, SVG Export Plug-In . SVG Version: 6.00 Build 0)  -->
<svg version="1.1" id="Layer_1" xmlns="http://www.w3.org/2000/svg" xmlns:xlink="http://www.w3.org/1999/xlink" x="0px" y="0px"
	 viewBox="0 0 512 512" style="enable-background:new 0 0 512 512;" xml:space="preserve">
<g>
	<g>
		<path d="M512,160c0-52.938-43.063-96-96-96s-96,43.063-96,96c0,6.594,0.674,13.033,1.947,19.257
			c-10.452-5.461-22.211-8.59-34.613-8.59H160h-13.958c-57,0-103.375,46.375-103.375,103.375c0,17.969,4.708,35.708,13.625,51.281
			l6.057,10.616l0.005,0.02l15.26,26.708H42.667C19.135,362.667,0,381.802,0,405.333S19.135,448,42.667,448h74.667
			c29.406,0,53.333-23.927,53.333-53.333v-53.333h131.448l30.802,77.021c7.208,18.01,24.385,29.646,43.938,29.646
			c21.667,0,40.469-14.688,45.729-35.719l0.896-3.573c2.427-9.688,1.75-19.698-1.958-28.969l-55.202-138.007
			C380.859,250.605,397.754,256,416,256C468.938,256,512,212.938,512,160z M149.333,320H77.813l-3-5.25
			C67.74,302.375,64,288.302,64,274.042C64,228.802,100.802,192,146.042,192h3.292V320z"/>
	</g>
</g>
<g>
</g>
<g>
</g>
<g>
</g>
<g>
</g>
<g>
</g>
<g>
</g>
<g>
</g>
<g>
</g>
<g>
</g>
<g>
</g>
<g>
</g>
<g>
</g>
<g>
</g>
<g>
</g>
<g>
</g>
</svg>
